ffmpeg started on 2026-03-24 at 12:41:10
Report written to "D:\Convert\FFMetrics\reports\psnr_report-6.txt"
Log level: 32
Command line:
ffmpeg -hide_banner -nostdin -r 24/1 -i "F:\\\xc0\xed\xe8\xec\xe5\\LightFamily\\\xcc\xee\xe6\xe5\xf2 \xeb\xe8 \xf1\xf3\xf9\xe5\xf1\xf2\xe2\xee\xe2\xe0\xf2\xfc \xe4\xf0\xf3\xe6\xe1\xe0 \xec\xe5\xe6\xe4\xf3 \xec\xf3\xe6\xf7\xe8\xed\xee\xe9 \xe8 \xe6\xe5\xed\xf9\xe8\xed\xee\xe9 (\xcd\xe5\xf2, \xfd\xf2\xee \xed\xe5 \xf2\xe0\xea!)\\LightFamilyDUB_\xcc\xee\xe6\xe5\xf2_\xeb\xe8_\xf1\xf3\xf9\xe5\xf1\xf2\xe2\xee\xe2\xe0\xf2\xfc_\xe4\xf0\xf3\xe6\xe1\xe0_\xec\xe5\xe6\xe4\xf3_\xef\xe0\xf0\xed\xe5\xec_\xe8_\xe4\xe5\xe2\xf3\xf8\xea\xee\xe9_02_HEVC.mkv" -r 24/1 -i "F:\\\xc0\xed\xe8\xec\xe5\\LightFamily\\\xcc\xee\xe6\xe5\xf2 \xeb\xe8 \xf1\xf3\xf9\xe5\xf1\xf2\xe2\xee\xe2\xe0\xf2\xfc \xe4\xf0\xf3\xe6\xe1\xe0 \xec\xe5\xe6\xe4\xf3 \xec\xf3\xe6\xf7\xe8\xed\xee\xe9 \xe8 \xe6\xe5\xed\xf9\xe8\xed\xee\xe9 (\xcd\xe5\xf2, \xfd\xf2\xee \xed\xe5 \xf2\xe0\xea!)\\LightFamilyDUB_\xcc\xee\xe6\xe5\xf2_\xeb\xe8_\xf1\xf3\xf9\xe5\xf1\xf2\xe2\xee\xe2\xe0\xf2\xfc_\xe4\xf0\xf3\xe6\xe1\xe0_\xec\xe5\xe6\xe4\xf3_\xef\xe0\xf0\xed\xe5\xec_\xe8_\xe4\xe5\xe2\xf3\xf8\xea\xee\xe9_02.mp4" -lavfi "[0:v]settb=AVTB,setpts=PTS-STARTPTS,format=pix_fmts=yuv420p10le,fps=24/1,scale=1920:1080:flags=lanczos:param0=3:out_range=limited:out_color_matrix=bt709:out_chroma_loc=left,setsar=1/1,setdar=(1920/1080)*(1/1),colorspace=format=yuv420p10:range=tv:primaries=bt709:trc=bt709:space=bt709:fast=0[main];[1:v]settb=AVTB,setpts=PTS-STARTPTS,format=pix_fmts=yuv420p,fps=24/1,scale=1920:1080:flags=lanczos:param0=3:out_range=limited:out_color_matrix=bt709:out_chroma_loc=left,setsar=1/1,setdar=(1920/1080)*(1/1),colorspace=format=yuv420p:range=tv:primaries=bt709:trc=bt709:space=bt709:fast=0[ref];[main][ref]psnr=eof_action=endall:stats_file='D\\:/Convert/FFMetrics/logs/psnr_logfile-6.txt'" -f null -
Input #0, matroska,webm, from 'F:\Аниме\LightFamily\Может ли существовать дружба между мужчиной и женщиной (Нет, это не так!)\LightFamilyDUB_Может_ли_существовать_дружба_между_парнем_и_девушкой_02_HEVC.mkv':
  Metadata:
    COMPATIBLE_BRANDS: mp42mp41
    MAJOR_BRAND     : mp42
    MINOR_VERSION   : 0
    ENCODER         : Lavf61.7.100
  Duration: 00:23:39.99, start: -0.021000, bitrate: 946 kb/s
  Stream #0:0(eng): Video: hevc (Main 10), yuv420p10le(tv, bt709, progressive), 1920x1080 [SAR 1:1 DAR 16:9], 24 fps, 24 tbr, 1k tbn (default)
      Metadata:
        HANDLER_NAME    : Mainconcept Video Media Handler
        VENDOR_ID       : [0][0][0][0]
        ENCODER         : Lavc61.19.100 libx265
        BPS             : 750451
        DURATION        : 00:23:39.958666666
        NUMBER_OF_FRAMES: 34079
        NUMBER_OF_BYTES : 133201273
        _STATISTICS_WRITING_APP: mkvpropedit v94.0 ('Initiate') 64-bit
        _STATISTICS_WRITING_DATE_UTC: 2026-03-23 12:54:10
        _STATISTICS_TAGS: BPS DURATION NUMBER_OF_FRAMES NUMBER_OF_BYTES
  Stream #0:1(eng): Audio: aac (LC), 48000 Hz, stereo, fltp (default)
      Metadata:
        HANDLER_NAME    : #Mainconcept MP4 Sound Media Handler
        VENDOR_ID       : [0][0][0][0]
        ENCODER         : Lavc61.19.100 aac
        BPS             : 192047
        DURATION        : 00:23:39.968000000
        NUMBER_OF_FRAMES: 66562
        NUMBER_OF_BYTES : 34087629
        _STATISTICS_WRITING_APP: mkvpropedit v94.0 ('Initiate') 64-bit
        _STATISTICS_WRITING_DATE_UTC: 2026-03-23 12:54:10
        _STATISTICS_TAGS: BPS DURATION NUMBER_OF_FRAMES NUMBER_OF_BYTES
Input #1, mov,mp4,m4a,3gp,3g2,mj2, from 'F:\Аниме\LightFamily\Может ли существовать дружба между мужчиной и женщиной (Нет, это не так!)\LightFamilyDUB_Может_ли_существовать_дружба_между_парнем_и_девушкой_02.mp4':
  Metadata:
    major_brand     : mp42
    minor_version   : 0
    compatible_brands: mp42mp41
    creation_time   : 2025-04-18T09:44:27.000000Z
  Duration: 00:23:39.96, start: 0.000000, bitrate: 8387 kb/s
  Stream #1:0[0x1](eng): Video: h264 (Main) (avc1 / 0x31637661), yuv420p(tv, bt709, progressive), 1920x1080, 8002 kb/s, 24 fps, 24 tbr, 24k tbn (default)
      Metadata:
        creation_time   : 2025-04-18T09:44:27.000000Z
        handler_name    : Mainconcept Video Media Handler
        vendor_id       : [0][0][0][0]
        encoder         : AVC Coding
  Stream #1:1[0x2](eng): Audio: aac (LC) (mp4a / 0x6134706D), 48000 Hz, stereo, fltp, 381 kb/s (default)
      Metadata:
        creation_time   : 2025-04-18T09:44:27.000000Z
        handler_name    : #Mainconcept MP4 Sound Media Handler
        vendor_id       : [0][0][0][0]
Stream mapping:
  Stream #0:0 (hevc) -> settb:default
  Stream #1:0 (h264) -> settb:default
  psnr:default -> Stream #0:0 (wrapped_avframe)
  Stream #0:1 -> #0:1 (aac (native) -> pcm_s16le (native))
Output #0, null, to 'pipe:':
  Metadata:
    COMPATIBLE_BRANDS: mp42mp41
    MAJOR_BRAND     : mp42
    MINOR_VERSION   : 0
    encoder         : Lavf61.7.100
  Stream #0:0: Video: wrapped_avframe, yuv420p10le(tv, bt709, progressive), 1920x1080 [SAR 1:1 DAR 16:9], q=2-31, 200 kb/s, 24 fps, 24 tbn
      Metadata:
        encoder         : Lavc61.19.100 wrapped_avframe
  Stream #0:1(eng): Audio: pcm_s16le, 48000 Hz, stereo, s16, 1536 kb/s (default)
      Metadata:
        HANDLER_NAME    : #Mainconcept MP4 Sound Media Handler
        VENDOR_ID       : [0][0][0][0]
        _STATISTICS_TAGS: BPS DURATION NUMBER_OF_FRAMES NUMBER_OF_BYTES
        BPS             : 192047
        DURATION        : 00:23:39.968000000
        NUMBER_OF_FRAMES: 66562
        NUMBER_OF_BYTES : 34087629
        _STATISTICS_WRITING_APP: mkvpropedit v94.0 ('Initiate') 64-bit
        _STATISTICS_WRITING_DATE_UTC: 2026-03-23 12:54:10
        encoder         : Lavc61.19.100 pcm_s16le
frame=  149 fps=0.0 q=-0.0 size=N/A time=00:00:06.20 bitrate=N/A speed=12.1x    frame=  332 fps=325 q=-0.0 size=N/A time=00:00:13.83 bitrate=N/A speed=13.6x    frame=  529 fps=342 q=-0.0 size=N/A time=00:00:22.04 bitrate=N/A speed=14.2x    frame=  721 fps=350 q=-0.0 size=N/A time=00:00:30.04 bitrate=N/A speed=14.6x    frame=  912 fps=355 q=-0.0 size=N/A time=00:00:38.00 bitrate=N/A speed=14.8x    frame= 1099 fps=356 q=-0.0 size=N/A time=00:00:45.79 bitrate=N/A speed=14.9x    frame= 1282 fps=357 q=-0.0 size=N/A time=00:00:53.41 bitrate=N/A speed=14.9x    frame= 1481 fps=359 q=-0.0 size=N/A time=00:01:01.70 bitrate=N/A speed=  15x    frame= 1671 fps=361 q=-0.0 size=N/A time=00:01:09.62 bitrate=N/A speed=  15x    frame= 1859 fps=361 q=-0.0 size=N/A time=00:01:17.45 bitrate=N/A speed=15.1x    frame= 2053 fps=362 q=-0.0 size=N/A time=00:01:25.54 bitrate=N/A speed=15.1x    frame= 2239 fps=362 q=-0.0 size=N/A time=00:01:33.29 bitrate=N/A speed=15.1x    frame= 2435 fps=364 q=-0.0 size=N/A time=00:01:41.45 bitrate=N/A speed=15.2x    frame= 2618 fps=363 q=-0.0 size=N/A time=00:01:49.08 bitrate=N/A speed=15.1x    frame= 2774 fps=359 q=-0.0 size=N/A time=00:01:55.58 bitrate=N/A speed=  15x    frame= 2919 fps=354 q=-0.0 size=N/A time=00:02:01.62 bitrate=N/A speed=14.8x    [h264 @ 00000220bf507600] concealing 13 DC, 13 AC, 13 MV errors in B frame
[vist#1:0/h264 @ 00000220be19f840] [dec:h264 @ 00000220be652880] corrupt decoded frame
frame= 3097 fps=354 q=-0.0 size=N/A time=00:02:09.04 bitrate=N/A speed=14.7x    frame= 3288 fps=354 q=-0.0 size=N/A time=00:02:17.00 bitrate=N/A speed=14.8x    frame= 3457 fps=353 q=-0.0 size=N/A time=00:02:24.04 bitrate=N/A speed=14.7x    frame= 3626 fps=352 q=-0.0 size=N/A time=00:02:31.08 bitrate=N/A speed=14.7x    frame= 3792 fps=351 q=-0.0 size=N/A time=00:02:38.00 bitrate=N/A speed=14.6x    frame= 3954 fps=349 q=-0.0 size=N/A time=00:02:44.75 bitrate=N/A speed=14.5x    frame= 4122 fps=348 q=-0.0 size=N/A time=00:02:51.75 bitrate=N/A speed=14.5x    frame= 4293 fps=347 q=-0.0 size=N/A time=00:02:58.87 bitrate=N/A speed=14.5x    frame= 4475 fps=347 q=-0.0 size=N/A time=00:03:06.45 bitrate=N/A speed=14.5x    frame= 4648 fps=347 q=-0.0 size=N/A time=00:03:13.66 bitrate=N/A speed=14.4x    frame= 4834 fps=347 q=-0.0 size=N/A time=00:03:21.41 bitrate=N/A speed=14.5x    frame= 5028 fps=348 q=-0.0 size=N/A time=00:03:29.50 bitrate=N/A speed=14.5x    frame= 5212 fps=349 q=-0.0 size=N/A time=00:03:37.16 bitrate=N/A speed=14.5x    frame= 5402 fps=349 q=-0.0 size=N/A time=00:03:45.08 bitrate=N/A speed=14.6x    frame= 5605 fps=351 q=-0.0 size=N/A time=00:03:53.54 bitrate=N/A speed=14.6x    frame= 5799 fps=352 q=-0.0 size=N/A time=00:04:01.62 bitrate=N/A speed=14.6x    frame= 5989 fps=352 q=-0.0 size=N/A time=00:04:09.54 bitrate=N/A speed=14.7x    frame= 6179 fps=353 q=-0.0 size=N/A time=00:04:17.45 bitrate=N/A speed=14.7x    frame= 6370 fps=353 q=-0.0 size=N/A time=00:04:25.41 bitrate=N/A speed=14.7x    frame= 6560 fps=354 q=-0.0 size=N/A time=00:04:33.33 bitrate=N/A speed=14.7x    frame= 6740 fps=354 q=-0.0 size=N/A time=00:04:40.83 bitrate=N/A speed=14.7x    frame= 6925 fps=353 q=-0.0 size=N/A time=00:04:48.54 bitrate=N/A speed=14.7x    frame= 7112 fps=354 q=-0.0 size=N/A time=00:04:56.33 bitrate=N/A speed=14.7x    frame= 7303 fps=354 q=-0.0 size=N/A time=00:05:04.29 bitrate=N/A speed=14.8x    frame= 7480 fps=354 q=-0.0 size=N/A time=00:05:11.66 bitrate=N/A speed=14.7x    frame= 7669 fps=354 q=-0.0 size=N/A time=00:05:19.54 bitrate=N/A speed=14.8x    frame= 7851 fps=354 q=-0.0 size=N/A time=00:05:27.12 bitrate=N/A speed=14.8x    frame= 8047 fps=355 q=-0.0 size=N/A time=00:05:35.29 bitrate=N/A speed=14.8x    frame= 8239 fps=355 q=-0.0 size=N/A time=00:05:43.29 bitrate=N/A speed=14.8x    frame= 8436 fps=356 q=-0.0 size=N/A time=00:05:51.50 bitrate=N/A speed=14.8x    frame= 8626 fps=356 q=-0.0 size=N/A time=00:05:59.41 bitrate=N/A speed=14.8x    frame= 8822 fps=356 q=-0.0 size=N/A time=00:06:07.58 bitrate=N/A speed=14.9x    frame= 9007 fps=357 q=-0.0 size=N/A time=00:06:15.29 bitrate=N/A speed=14.9x    frame= 9199 fps=357 q=-0.0 size=N/A time=00:06:23.29 bitrate=N/A speed=14.9x    frame= 9378 fps=357 q=-0.0 size=N/A time=00:06:30.75 bitrate=N/A speed=14.9x    frame= 9577 fps=357 q=-0.0 size=N/A time=00:06:39.04 bitrate=N/A speed=14.9x    frame= 9769 fps=358 q=-0.0 size=N/A time=00:06:47.04 bitrate=N/A speed=14.9x    frame= 9956 fps=358 q=-0.0 size=N/A time=00:06:54.83 bitrate=N/A speed=14.9x    frame=10148 fps=358 q=-0.0 size=N/A time=00:07:02.83 bitrate=N/A speed=14.9x    frame=10337 fps=358 q=-0.0 size=N/A time=00:07:10.70 bitrate=N/A speed=14.9x    frame=10540 fps=359 q=-0.0 size=N/A time=00:07:19.16 bitrate=N/A speed=14.9x    frame=10724 fps=359 q=-0.0 size=N/A time=00:07:26.83 bitrate=N/A speed=14.9x    frame=10913 fps=359 q=-0.0 size=N/A time=00:07:34.70 bitrate=N/A speed=  15x    frame=11098 fps=359 q=-0.0 size=N/A time=00:07:42.41 bitrate=N/A speed=  15x    frame=11294 fps=359 q=-0.0 size=N/A time=00:07:50.58 bitrate=N/A speed=  15x    frame=11486 fps=359 q=-0.0 size=N/A time=00:07:58.58 bitrate=N/A speed=  15x    frame=11677 fps=360 q=-0.0 size=N/A time=00:08:06.54 bitrate=N/A speed=  15x    frame=11858 fps=359 q=-0.0 size=N/A time=00:08:14.08 bitrate=N/A speed=  15x    frame=12045 fps=359 q=-0.0 size=N/A time=00:08:21.87 bitrate=N/A speed=  15x    frame=12230 fps=359 q=-0.0 size=N/A time=00:08:29.58 bitrate=N/A speed=  15x    frame=12425 fps=360 q=-0.0 size=N/A time=00:08:37.70 bitrate=N/A speed=  15x    frame=12611 fps=360 q=-0.0 size=N/A time=00:08:45.45 bitrate=N/A speed=  15x    frame=12812 fps=360 q=-0.0 size=N/A time=00:08:53.83 bitrate=N/A speed=  15x    frame=13007 fps=360 q=-0.0 size=N/A time=00:09:01.95 bitrate=N/A speed=  15x    frame=13196 fps=361 q=-0.0 size=N/A time=00:09:09.83 bitrate=N/A speed=  15x    frame=13382 fps=361 q=-0.0 size=N/A time=00:09:17.58 bitrate=N/A speed=  15x    frame=13581 fps=361 q=-0.0 size=N/A time=00:09:25.87 bitrate=N/A speed=  15x    frame=13771 fps=361 q=-0.0 size=N/A time=00:09:33.79 bitrate=N/A speed=  15x    frame=13963 fps=361 q=-0.0 size=N/A time=00:09:41.79 bitrate=N/A speed=  15x    frame=14156 fps=361 q=-0.0 size=N/A time=00:09:49.83 bitrate=N/A speed=15.1x    frame=14348 fps=361 q=-0.0 size=N/A time=00:09:57.83 bitrate=N/A speed=15.1x    frame=14535 fps=361 q=-0.0 size=N/A time=00:10:05.62 bitrate=N/A speed=15.1x    frame=14725 fps=362 q=-0.0 size=N/A time=00:10:13.54 bitrate=N/A speed=15.1x    frame=14920 fps=362 q=-0.0 size=N/A time=00:10:21.66 bitrate=N/A speed=15.1x    frame=15103 fps=362 q=-0.0 size=N/A time=00:10:29.29 bitrate=N/A speed=15.1x    frame=15297 fps=362 q=-0.0 size=N/A time=00:10:37.37 bitrate=N/A speed=15.1x    frame=15486 fps=362 q=-0.0 size=N/A time=00:10:45.25 bitrate=N/A speed=15.1x    frame=15677 fps=362 q=-0.0 size=N/A time=00:10:53.20 bitrate=N/A speed=15.1x    frame=15870 fps=362 q=-0.0 size=N/A time=00:11:01.25 bitrate=N/A speed=15.1x    frame=16070 fps=362 q=-0.0 size=N/A time=00:11:09.58 bitrate=N/A speed=15.1x    frame=16265 fps=363 q=-0.0 size=N/A time=00:11:17.70 bitrate=N/A speed=15.1x    frame=16450 fps=363 q=-0.0 size=N/A time=00:11:25.41 bitrate=N/A speed=15.1x    frame=16651 fps=363 q=-0.0 size=N/A time=00:11:33.79 bitrate=N/A speed=15.1x    frame=16831 fps=363 q=-0.0 size=N/A time=00:11:41.29 bitrate=N/A speed=15.1x    frame=17028 fps=363 q=-0.0 size=N/A time=00:11:49.50 bitrate=N/A speed=15.1x    frame=17223 fps=363 q=-0.0 size=N/A time=00:11:57.62 bitrate=N/A speed=15.1x    frame=17418 fps=363 q=-0.0 size=N/A time=00:12:05.75 bitrate=N/A speed=15.1x    frame=17609 fps=363 q=-0.0 size=N/A time=00:12:13.70 bitrate=N/A speed=15.1x    frame=17801 fps=363 q=-0.0 size=N/A time=00:12:21.70 bitrate=N/A speed=15.1x    frame=17988 fps=363 q=-0.0 size=N/A time=00:12:29.50 bitrate=N/A speed=15.1x    frame=18167 fps=363 q=-0.0 size=N/A time=00:12:36.95 bitrate=N/A speed=15.1x    frame=18369 fps=364 q=-0.0 size=N/A time=00:12:45.37 bitrate=N/A speed=15.2x    frame=18559 fps=364 q=-0.0 size=N/A time=00:12:53.29 bitrate=N/A speed=15.1x    frame=18752 fps=364 q=-0.0 size=N/A time=00:13:01.33 bitrate=N/A speed=15.2x    frame=18941 fps=364 q=-0.0 size=N/A time=00:13:09.20 bitrate=N/A speed=15.2x    frame=19131 fps=364 q=-0.0 size=N/A time=00:13:17.12 bitrate=N/A speed=15.2x    frame=19331 fps=364 q=-0.0 size=N/A time=00:13:25.45 bitrate=N/A speed=15.2x    frame=19525 fps=364 q=-0.0 size=N/A time=00:13:33.54 bitrate=N/A speed=15.2x    frame=19708 fps=364 q=-0.0 size=N/A time=00:13:41.16 bitrate=N/A speed=15.2x    frame=19889 fps=364 q=-0.0 size=N/A time=00:13:48.70 bitrate=N/A speed=15.2x    frame=20080 fps=364 q=-0.0 size=N/A time=00:13:56.66 bitrate=N/A speed=15.2x    frame=20274 fps=364 q=-0.0 size=N/A time=00:14:04.75 bitrate=N/A speed=15.2x    frame=20457 fps=364 q=-0.0 size=N/A time=00:14:12.37 bitrate=N/A speed=15.2x    frame=20655 fps=364 q=-0.0 size=N/A time=00:14:20.62 bitrate=N/A speed=15.2x    frame=20837 fps=364 q=-0.0 size=N/A time=00:14:28.20 bitrate=N/A speed=15.2x    frame=21037 fps=364 q=-0.0 size=N/A time=00:14:36.54 bitrate=N/A speed=15.2x    frame=21226 fps=364 q=-0.0 size=N/A time=00:14:44.41 bitrate=N/A speed=15.2x    frame=21414 fps=364 q=-0.0 size=N/A time=00:14:52.25 bitrate=N/A speed=15.2x    frame=21600 fps=364 q=-0.0 size=N/A time=00:15:00.00 bitrate=N/A speed=15.2x    frame=21787 fps=364 q=-0.0 size=N/A time=00:15:07.79 bitrate=N/A speed=15.2x    frame=21970 fps=364 q=-0.0 size=N/A time=00:15:15.41 bitrate=N/A speed=15.2x    frame=22164 fps=364 q=-0.0 size=N/A time=00:15:23.50 bitrate=N/A speed=15.2x    frame=22358 fps=364 q=-0.0 size=N/A time=00:15:31.58 bitrate=N/A speed=15.2x    frame=22542 fps=364 q=-0.0 size=N/A time=00:15:39.25 bitrate=N/A speed=15.2x    frame=22723 fps=364 q=-0.0 size=N/A time=00:15:46.79 bitrate=N/A speed=15.2x    frame=22908 fps=364 q=-0.0 size=N/A time=00:15:54.50 bitrate=N/A speed=15.2x    frame=23084 fps=364 q=-0.0 size=N/A time=00:16:01.83 bitrate=N/A speed=15.2x    frame=23268 fps=364 q=-0.0 size=N/A time=00:16:09.50 bitrate=N/A speed=15.2x    frame=23451 fps=364 q=-0.0 size=N/A time=00:16:17.12 bitrate=N/A speed=15.2x    frame=23649 fps=364 q=-0.0 size=N/A time=00:16:25.37 bitrate=N/A speed=15.2x    frame=23842 fps=364 q=-0.0 size=N/A time=00:16:33.41 bitrate=N/A speed=15.2x    frame=24045 fps=364 q=-0.0 size=N/A time=00:16:41.87 bitrate=N/A speed=15.2x    frame=24239 fps=364 q=-0.0 size=N/A time=00:16:49.95 bitrate=N/A speed=15.2x    frame=24425 fps=364 q=-0.0 size=N/A time=00:16:57.70 bitrate=N/A speed=15.2x    frame=24593 fps=364 q=-0.0 size=N/A time=00:17:04.70 bitrate=N/A speed=15.2x    frame=24769 fps=364 q=-0.0 size=N/A time=00:17:12.04 bitrate=N/A speed=15.2x    frame=24967 fps=364 q=-0.0 size=N/A time=00:17:20.29 bitrate=N/A speed=15.2x    frame=25153 fps=364 q=-0.0 size=N/A time=00:17:28.04 bitrate=N/A speed=15.2x    frame=25339 fps=364 q=-0.0 size=N/A time=00:17:35.79 bitrate=N/A speed=15.2x    frame=25504 fps=364 q=-0.0 size=N/A time=00:17:42.66 bitrate=N/A speed=15.2x    frame=25674 fps=363 q=-0.0 size=N/A time=00:17:49.75 bitrate=N/A speed=15.1x    frame=25858 fps=363 q=-0.0 size=N/A time=00:17:57.41 bitrate=N/A speed=15.1x    frame=26049 fps=364 q=-0.0 size=N/A time=00:18:05.37 bitrate=N/A speed=15.1x    frame=26246 fps=364 q=-0.0 size=N/A time=00:18:13.58 bitrate=N/A speed=15.1x    frame=26437 fps=364 q=-0.0 size=N/A time=00:18:21.54 bitrate=N/A speed=15.2x    frame=26626 fps=364 q=-0.0 size=N/A time=00:18:29.41 bitrate=N/A speed=15.2x    frame=26817 fps=364 q=-0.0 size=N/A time=00:18:37.37 bitrate=N/A speed=15.2x    frame=27015 fps=364 q=-0.0 size=N/A time=00:18:45.62 bitrate=N/A speed=15.2x    frame=27205 fps=364 q=-0.0 size=N/A time=00:18:53.54 bitrate=N/A speed=15.2x    frame=27395 fps=364 q=-0.0 size=N/A time=00:19:01.45 bitrate=N/A speed=15.2x    frame=27594 fps=364 q=-0.0 size=N/A time=00:19:09.75 bitrate=N/A speed=15.2x    frame=27775 fps=364 q=-0.0 size=N/A time=00:19:17.29 bitrate=N/A speed=15.2x    frame=27959 fps=364 q=-0.0 size=N/A time=00:19:24.95 bitrate=N/A speed=15.2x    frame=28155 fps=364 q=-0.0 size=N/A time=00:19:33.12 bitrate=N/A speed=15.2x    frame=28354 fps=364 q=-0.0 size=N/A time=00:19:41.41 bitrate=N/A speed=15.2x    frame=28550 fps=364 q=-0.0 size=N/A time=00:19:49.58 bitrate=N/A speed=15.2x    frame=28742 fps=364 q=-0.0 size=N/A time=00:19:57.58 bitrate=N/A speed=15.2x    frame=28936 fps=364 q=-0.0 size=N/A time=00:20:05.66 bitrate=N/A speed=15.2x    frame=29133 fps=364 q=-0.0 size=N/A time=00:20:13.87 bitrate=N/A speed=15.2x    frame=29326 fps=365 q=-0.0 size=N/A time=00:20:21.91 bitrate=N/A speed=15.2x    frame=29520 fps=365 q=-0.0 size=N/A time=00:20:30.00 bitrate=N/A speed=15.2x    frame=29691 fps=364 q=-0.0 size=N/A time=00:20:37.12 bitrate=N/A speed=15.2x    frame=29883 fps=364 q=-0.0 size=N/A time=00:20:45.12 bitrate=N/A speed=15.2x    frame=30075 fps=365 q=-0.0 size=N/A time=00:20:53.12 bitrate=N/A speed=15.2x    frame=30267 fps=365 q=-0.0 size=N/A time=00:21:01.12 bitrate=N/A speed=15.2x    frame=30463 fps=365 q=-0.0 size=N/A time=00:21:09.29 bitrate=N/A speed=15.2x    frame=30647 fps=365 q=-0.0 size=N/A time=00:21:16.95 bitrate=N/A speed=15.2x    frame=30838 fps=365 q=-0.0 size=N/A time=00:21:24.91 bitrate=N/A speed=15.2x    frame=31040 fps=365 q=-0.0 size=N/A time=00:21:33.33 bitrate=N/A speed=15.2x    frame=31232 fps=365 q=-0.0 size=N/A time=00:21:41.33 bitrate=N/A speed=15.2x    frame=31427 fps=365 q=-0.0 size=N/A time=00:21:49.45 bitrate=N/A speed=15.2x    frame=31617 fps=365 q=-0.0 size=N/A time=00:21:57.37 bitrate=N/A speed=15.2x    frame=31816 fps=365 q=-0.0 size=N/A time=00:22:05.66 bitrate=N/A speed=15.2x    frame=32001 fps=365 q=-0.0 size=N/A time=00:22:13.37 bitrate=N/A speed=15.2x    frame=32182 fps=365 q=-0.0 size=N/A time=00:22:20.91 bitrate=N/A speed=15.2x    frame=32349 fps=365 q=-0.0 size=N/A time=00:22:27.87 bitrate=N/A speed=15.2x    frame=32528 fps=365 q=-0.0 size=N/A time=00:22:35.33 bitrate=N/A speed=15.2x    frame=32693 fps=364 q=-0.0 size=N/A time=00:22:42.20 bitrate=N/A speed=15.2x    frame=32860 fps=364 q=-0.0 size=N/A time=00:22:49.16 bitrate=N/A speed=15.2x    frame=33034 fps=364 q=-0.0 size=N/A time=00:22:56.41 bitrate=N/A speed=15.2x    frame=33203 fps=364 q=-0.0 size=N/A time=00:23:03.45 bitrate=N/A speed=15.2x    frame=33380 fps=364 q=-0.0 size=N/A time=00:23:10.83 bitrate=N/A speed=15.2x    frame=33561 fps=364 q=-0.0 size=N/A time=00:23:18.37 bitrate=N/A speed=15.1x    frame=33731 fps=363 q=-0.0 size=N/A time=00:23:25.45 bitrate=N/A speed=15.1x    frame=33923 fps=363 q=-0.0 size=N/A time=00:23:33.45 bitrate=N/A speed=15.1x    [Parsed_psnr_16 @ 00000220d49cc880] PSNR y:48.050258 u:50.072886 v:49.822210 average:48.595037 min:38.195056 max:73.155324
[out#0/null @ 00000220be19d540] video:14643KiB audio:266248KiB subtitle:0KiB other streams:0KiB global headers:0KiB muxing overhead: unknown
frame=34079 fps=364 q=-0.0 Lsize=N/A time=00:23:39.95 bitrate=N/A speed=15.1x    
